<svg width="16" height="16" viewBox="0 0 16 16" fill="none" xmlns="http://www.w3.org/2000/svg">
<path d="M7.99996 2.66667C8.7072 2.66667 9.38548 2.94762 9.88558 3.44772C10.3857 3.94782 10.6666 4.62609 10.6666 5.33334C10.6666 6.04058 10.3857 6.71886 9.88558 7.21896C9.38548 7.71905 8.7072 8 7.99996 8C7.29272 8 6.61444 7.71905 6.11434 7.21896C5.61424 6.71886 5.33329 6.04058 5.33329 5.33334C5.33329 4.62609 5.61424 3.94782 6.11434 3.44772C6.61444 2.94762 7.29272 2.66667 7.99996 2.66667ZM7.99996 9.33334C10.9466 9.33334 13.3333 10.5267 13.3333 12V13.3333H2.66663V12C2.66663 10.5267 5.05329 9.33334 7.99996 9.33334Z" fill="white"/>
</svg>
