<svg width="1512" height="763" viewBox="0 0 1512 763" fill="none" xmlns="http://www.w3.org/2000/svg">
<g clip-path="url(#clip0_50_928)">
<path opacity="0.2" fill-rule="evenodd" clip-rule="evenodd" d="M1457.32 612.811C1427.81 630.349 1374.77 652.667 1311.51 662.667C1248.25 672.668 1174.73 670.356 1104.3 638.593C1082.26 628.657 1066.98 616.46 1056.65 602.685C1046.31 588.907 1040.95 573.579 1038.7 557.418C1034.83 529.62 1040.18 499.307 1045.33 470.151V470.136C1046.16 465.439 1046.98 460.772 1047.76 456.151C1050.58 439.471 1052.81 423.377 1052.64 408.54C1052.47 393.708 1049.9 380.166 1043.14 368.571C1029.63 345.395 999.223 329.777 936.958 327.505C843.257 324.086 779.042 353.969 724.637 379.287C706.772 387.6 689.966 395.421 673.52 401.41C640.26 413.521 608.494 418.109 572.541 403.97C536.613 389.841 496.561 357.032 446.663 294.503C396.83 232.058 355.243 213.514 318.144 219.185C280.992 224.865 248.175 254.843 215.924 289.92C208.133 298.393 200.375 307.164 192.599 315.954C168.231 343.506 143.684 371.258 117.376 390.687C100.012 403.511 81.8528 412.734 62.4328 415.893C43.0061 419.052 22.3476 416.137 0 404.734L0.389902 403.829C22.5846 415.154 43.061 418.032 62.297 414.904C81.5397 411.774 99.5705 402.629 116.86 389.86C143.081 370.495 167.531 342.853 191.885 315.32C199.673 306.515 207.451 297.721 215.274 289.213C247.515 254.148 280.526 223.927 318.017 218.195C355.561 212.455 397.432 231.286 447.357 293.847C497.214 356.325 537.141 388.986 572.854 403.03C608.543 417.065 640.083 412.531 673.229 400.461C689.583 394.507 706.331 386.712 724.157 378.415C778.588 353.084 843.062 323.078 936.985 326.505C999.306 328.779 1030.14 344.412 1043.91 368.035C1050.8 379.839 1053.39 393.583 1053.56 408.528C1053.73 423.469 1051.48 439.645 1048.66 456.331C1047.88 460.963 1047.06 465.634 1046.23 470.329L1046.22 470.366C1041.08 499.537 1035.76 529.655 1039.61 557.268C1041.84 573.282 1047.15 588.435 1057.36 602.052C1067.58 615.672 1082.72 627.781 1104.65 637.669C1174.89 669.344 1248.23 671.661 1311.38 661.678C1374.52 651.694 1427.47 629.414 1456.88 611.933L1457.32 612.811ZM1330.07 622.262C1393.33 612.261 1446.36 589.943 1475.88 572.405L1475.44 571.527C1446.02 589.008 1393.09 611.288 1329.93 621.272C1266.79 631.255 1193.45 628.938 1123.2 597.263C1101.27 587.375 1086.14 575.266 1075.92 561.646C1065.7 548.029 1060.4 532.876 1058.16 516.862C1054.32 489.249 1059.63 459.131 1064.79 429.96V429.923C1065.62 425.228 1066.44 420.557 1067.22 415.925C1070.04 399.239 1072.28 383.063 1072.12 368.122C1071.95 353.177 1069.36 339.433 1062.48 327.629C1048.7 304.006 1017.87 288.373 955.551 286.099C861.622 282.672 797.148 312.678 742.718 338.009H742.717C724.891 346.306 708.142 354.101 691.788 360.055C658.642 372.125 627.102 376.659 591.413 362.624C555.7 348.58 515.773 315.919 465.916 253.441C415.991 190.88 374.12 172.049 336.576 177.789C299.085 183.521 266.074 213.742 233.833 248.807C226.01 257.315 218.232 266.109 210.444 274.914C186.09 302.447 161.64 330.089 135.419 349.454C118.13 362.223 100.099 371.368 80.8563 374.498C61.6203 377.626 41.1439 374.748 18.9492 363.423L18.5593 364.328C40.9069 375.731 61.5654 378.646 80.992 375.487C100.412 372.328 118.572 363.105 135.936 350.281C162.243 330.852 186.79 303.1 211.159 275.549C218.934 266.758 226.692 257.987 234.483 249.514C266.734 214.437 299.551 184.459 336.704 178.779C373.802 173.108 415.39 191.652 465.222 254.097C515.12 316.626 555.172 349.435 591.101 363.564C627.054 377.703 658.819 373.115 692.079 361.004C708.525 355.015 725.331 347.194 743.196 338.881C797.601 313.563 861.817 283.68 955.514 287.099C1017.78 289.371 1048.19 304.989 1061.7 328.165C1068.46 339.76 1071.03 353.302 1071.2 368.134C1071.36 382.971 1069.13 399.065 1066.32 415.745C1065.54 420.362 1064.72 425.024 1063.9 429.716L1063.89 429.729V429.745C1058.74 458.901 1053.39 489.214 1057.25 517.012C1059.5 533.173 1064.88 548.501 1075.21 562.279C1085.54 576.054 1100.82 588.251 1122.85 598.187C1193.29 629.95 1266.8 632.262 1330.07 622.262ZM1494.43 531.999C1464.93 549.537 1411.89 571.855 1348.63 581.856C1285.36 591.856 1211.85 589.544 1141.41 557.781C1119.38 547.845 1104.1 535.648 1093.77 521.873C1083.43 508.095 1078.07 492.767 1075.82 476.606C1071.94 448.808 1077.3 418.495 1082.44 389.339L1082.45 389.323V389.309V389.298C1083.28 384.61 1084.11 379.952 1084.88 375.339C1087.7 358.659 1089.93 342.565 1089.76 327.728C1089.59 312.896 1087.03 299.354 1080.27 287.759C1066.74 264.583 1036.34 248.965 974.08 246.693C880.376 243.274 816.16 273.157 761.756 298.475C743.891 306.788 727.084 314.609 710.639 320.598C677.378 332.709 645.613 337.297 609.66 323.159C573.731 309.029 533.679 276.22 483.782 213.691C433.949 151.246 392.361 132.702 355.263 138.373C318.11 144.053 285.294 174.031 253.042 209.108C245.253 217.579 237.497 226.348 229.723 235.137L229.719 235.142L229.718 235.143C205.349 262.694 180.802 290.446 154.495 309.875C137.131 322.699 118.971 331.922 99.5512 335.081C80.1246 338.24 59.4661 335.325 37.1186 323.922L37.5084 323.017C59.7031 334.342 80.1795 337.22 99.4152 334.092C118.658 330.962 136.689 321.817 153.979 309.048C180.199 289.683 204.65 262.041 229.003 234.508C236.791 225.704 244.57 216.909 252.393 208.401C284.633 173.336 317.645 143.115 355.135 137.383C392.679 131.643 434.551 150.474 484.475 213.035C534.332 275.513 574.259 308.174 609.972 322.218C645.661 336.253 677.201 331.719 710.348 319.649C726.699 313.695 743.447 305.901 761.272 297.605L761.277 297.603C815.707 272.272 880.182 242.266 974.107 245.693C1036.43 247.967 1067.27 263.6 1081.04 287.223C1087.92 299.027 1090.51 312.771 1090.67 327.716C1090.85 342.657 1088.6 358.833 1085.79 375.519C1085.01 380.151 1084.18 384.822 1083.35 389.517L1083.34 389.554C1078.2 418.725 1072.88 448.843 1076.73 476.456C1078.95 492.47 1084.26 507.623 1094.48 521.24C1104.7 534.86 1119.84 546.969 1141.77 556.857C1212.01 588.532 1285.34 590.849 1348.5 580.866C1411.65 570.882 1464.58 548.602 1493.99 531.122L1494.43 531.999ZM1513 491.593C1483.48 509.131 1430.44 531.449 1367.18 541.45C1303.93 551.451 1230.41 549.138 1159.98 517.375C1137.94 507.439 1122.66 495.242 1112.33 481.467C1101.99 467.689 1096.63 452.361 1094.38 436.2C1090.51 408.402 1095.85 378.089 1101.01 348.933V348.919V348.907V348.891C1101.84 344.203 1102.66 339.545 1103.44 334.933C1106.25 318.253 1108.49 302.159 1108.32 287.322C1108.15 272.49 1105.58 258.948 1098.82 247.353C1085.31 224.177 1054.89 208.559 992.636 206.287C898.935 202.868 834.719 232.751 780.315 258.069C762.45 266.382 745.644 274.203 729.198 280.192C695.937 292.303 664.172 296.891 628.219 282.753C592.29 268.623 552.239 235.814 502.341 173.285C452.508 110.84 410.921 92.2956 373.822 97.9673C336.67 103.647 303.853 133.625 271.6 168.702C263.81 177.175 256.053 185.946 248.277 194.736C223.908 222.288 199.361 250.04 173.054 269.469C155.69 282.293 137.531 291.516 118.11 294.675C98.684 297.834 78.0253 294.919 55.6778 283.516L56.0677 282.611C78.2624 293.936 98.7391 296.814 117.975 293.686C137.217 290.556 155.248 281.411 172.538 268.642C198.759 249.277 223.208 221.635 247.562 194.102C255.351 185.297 263.129 176.503 270.952 167.995C303.193 132.93 336.204 102.709 373.694 96.977C411.238 91.2371 453.11 110.068 503.034 172.629C552.892 235.107 592.819 267.768 628.532 281.812C664.221 295.847 695.76 291.313 728.907 279.243C745.26 273.289 762.009 265.494 779.835 257.198L779.836 257.197C834.267 231.866 898.74 201.86 992.664 205.287C1054.98 207.561 1085.82 223.194 1099.59 246.817C1106.47 258.621 1109.06 272.365 1109.24 287.31C1109.4 302.251 1107.15 318.427 1104.34 335.113C1103.56 339.745 1102.74 344.416 1101.91 349.111L1101.9 349.148C1096.76 378.319 1091.44 408.437 1095.29 436.05C1097.52 452.064 1102.83 467.217 1113.04 480.834C1123.26 494.454 1138.4 506.563 1160.32 516.451C1230.56 548.126 1303.91 550.443 1367.06 540.46C1430.2 530.476 1483.14 508.196 1512.56 490.716L1513 491.593Z" fill="url(#paint0_linear_50_928)"/>
</g>
<defs>
<linearGradient id="paint0_linear_50_928" x1="173.992" y1="241.149" x2="1500.05" y2="241.149" gradientUnits="userSpaceOnUse">
<stop offset="0.310417" stop-color="#4535AF" stop-opacity="0.7"/>
<stop offset="0.461458" stop-color="#F8EFF4" stop-opacity="0.1"/>
<stop offset="0.851637" stop-color="#4535AF" stop-opacity="0.8"/>
</linearGradient>
<clipPath id="clip0_50_928">
<rect width="1513" height="572" fill="white" transform="translate(0 96)"/>
</clipPath>
</defs>
</svg>
