<svg width="14" height="20" viewBox="0 0 14 20" fill="none" xmlns="http://www.w3.org/2000/svg">
<path d="M7 9.54165C6.39221 9.54165 5.80932 9.3002 5.37955 8.87043C4.94978 8.44066 4.70834 7.85777 4.70834 7.24998C4.70834 6.64219 4.94978 6.0593 5.37955 5.62953C5.80932 5.19976 6.39221 4.95831 7 4.95831C7.60779 4.95831 8.19068 5.19976 8.62045 5.62953C9.05023 6.0593 9.29167 6.64219 9.29167 7.24998C9.29167 7.55093 9.23239 7.84892 9.11723 8.12696C9.00206 8.405 8.83326 8.65763 8.62045 8.87043C8.40765 9.08323 8.15502 9.25204 7.87699 9.3672C7.59895 9.48237 7.30095 9.54165 7 9.54165ZM7 0.833313C5.2982 0.833313 3.66609 1.50935 2.46273 2.71271C1.25938 3.91607 0.583336 5.54817 0.583336 7.24998C0.583336 12.0625 7 19.1666 7 19.1666C7 19.1666 13.4167 12.0625 13.4167 7.24998C13.4167 5.54817 12.7406 3.91607 11.5373 2.71271C10.3339 1.50935 8.70181 0.833313 7 0.833313Z" fill="#BDBDBD"/>
</svg>
