<svg width="64" height="57" viewBox="0 0 64 57" fill="none" xmlns="http://www.w3.org/2000/svg">
<rect y="0.5" width="64" height="56" rx="8" fill="#F0BB1F"/>
<g clip-path="url(#clip0_50_1092)">
<g clip-path="url(#clip1_50_1092)">
<g clip-path="url(#clip2_50_1092)">
<path d="M21.5 25.2647V37.5C21.5 38.6046 22.3954 39.5 23.5 39.5H40.5C41.6046 39.5 42.5 38.6046 42.5 37.5V25.2647M21.5 25.2647V22.0882C21.5 20.9837 22.3954 20.0882 23.5 20.0882H26.75M21.5 25.2647H42.5M42.5 25.2647V22.0882C42.5 20.9837 41.6046 20.0882 40.5 20.0882H37.25M26.75 20.0882V17.5M26.75 20.0882H37.25M37.25 20.0882V17.5M32 34.9706V32.3824M32 32.3824V29.7941M32 32.3824H34.625M32 32.3824H29.375" stroke="white" stroke-width="2" stroke-linecap="round" stroke-linejoin="round"/>
</g>
</g>
</g>
<defs>
<clipPath id="clip0_50_1092">
<rect width="23" height="24" fill="white" transform="translate(20.5 16.5)"/>
</clipPath>
<clipPath id="clip1_50_1092">
<rect width="23" height="24" fill="white" transform="translate(20.5 16.5)"/>
</clipPath>
<clipPath id="clip2_50_1092">
<rect width="23" height="24" fill="white" transform="translate(20.5 16.5)"/>
</clipPath>
</defs>
</svg>
