<svg width="28" height="28" viewBox="0 0 28 28" fill="none" xmlns="http://www.w3.org/2000/svg">
<g clip-path="url(#clip0_198_514)">
<path d="M25.1861 24.2674L23.5749 6.10888C23.5459 5.74953 23.2445 5.47713 22.8794 5.47713H19.483C19.4772 2.45746 17.0197 0 14.0001 0C10.9804 0 8.52293 2.45746 8.51713 5.47713H5.12073C4.76139 5.47713 4.46 5.74953 4.42523 6.10888L2.81396 24.2674C2.81396 24.2906 2.81396 24.308 2.81396 24.3312C2.81396 26.354 4.67445 28 6.95803 28H21.0421C23.3257 28 25.1861 26.354 25.1861 24.3312C25.1861 24.308 25.1861 24.2906 25.1861 24.2674ZM14.0001 1.39102C16.2547 1.39102 18.0862 3.22252 18.092 5.47713H9.90815C9.91394 3.22252 11.7454 1.39102 14.0001 1.39102ZM21.0421 26.6032H6.95803C5.4511 26.6032 4.22237 25.6005 4.20498 24.3544L5.75828 6.86814H8.51713V9.30822C8.51713 9.69075 8.83011 10.0037 9.21264 10.0037C9.59517 10.0037 9.90815 9.69075 9.90815 9.30822V6.86814H18.092V9.30822C18.092 9.69075 18.4049 10.0037 18.7875 10.0037C19.17 10.0037 19.483 9.69075 19.483 9.30822V6.86814H22.2418L23.7951 24.3602C23.7777 25.6005 22.549 26.6032 21.0421 26.6032Z" fill="#616161"/>
</g>
<defs>
<clipPath id="clip0_198_514">
<rect width="28" height="28" fill="white"/>
</clipPath>
</defs>
</svg>
